<svg width="64" height="65" viewBox="0 0 64 65" fill="none" xmlns="http://www.w3.org/2000/svg">
<path fill-rule="evenodd" clip-rule="evenodd" d="M28.5007 17.0117C28.9311 17.0117 29.3132 17.2871 29.4493 17.6955L35.5007 35.8494L38.052 28.1955C38.1881 27.7871 38.5702 27.5117 39.0007 27.5117H43.6673C44.2196 27.5117 44.6673 27.9594 44.6673 28.5117C44.6673 29.064 44.2196 29.5117 43.6673 29.5117H39.7214L36.4493 39.3279C36.3132 39.7363 35.9311 40.0117 35.5007 40.0117C35.0702 40.0117 34.6881 39.7363 34.552 39.3279L28.5007 21.174L25.9493 28.8279C25.8132 29.2363 25.4311 29.5117 25.0007 29.5117H20.334C19.7817 29.5117 19.334 29.064 19.334 28.5117C19.334 27.9594 19.7817 27.5117 20.334 27.5117H24.2799L27.552 17.6955C27.6881 17.2871 28.0702 17.0117 28.5007 17.0117Z" fill="#73768B"/>
<path d="M28.75 53.4102C29.625 54.5872 30.5208 55.9154 31.4375 57.3945C31.0729 57.6029 30.6875 57.8372 30.2812 58.0977C30.0208 57.6549 29.7708 57.2305 29.5312 56.8242C29.0469 56.8555 28.5469 56.8841 28.0312 56.9102V62.207C28.0312 62.8424 28.2656 63.1602 28.7344 63.1602H29.5C30.0104 63.1602 30.3021 62.8997 30.375 62.3789C30.4583 61.7539 30.5104 61.0768 30.5312 60.3477C30.875 60.4935 31.2917 60.6445 31.7812 60.8008C31.6979 61.707 31.6094 62.4102 31.5156 62.9102C31.3698 63.8164 30.8229 64.2695 29.875 64.2695H28.5312C27.3958 64.2695 26.8281 63.6185 26.8281 62.3164V56.9805C26.2448 57.0117 25.6406 57.0482 25.0156 57.0898C24.9323 59.3555 24.6406 60.9362 24.1406 61.832C23.5469 62.9779 22.4375 63.9258 20.8125 64.6758C20.5833 64.3529 20.3177 64.0039 20.0156 63.6289C21.526 63.0143 22.5365 62.207 23.0469 61.207C23.5156 60.4102 23.7682 59.0638 23.8047 57.168C23.5911 57.1836 23.375 57.1966 23.1562 57.207C22.7083 57.2487 22.2917 57.3164 21.9062 57.4102L21.375 56.1914C21.8229 56.0039 22.1823 55.7539 22.4531 55.4414C23.2344 54.5091 23.9688 53.4935 24.6562 52.3945H21.25V51.2852H26.2344C25.8438 50.6862 25.474 50.1549 25.125 49.6914L26.1562 49.0508C26.5521 49.5404 26.9948 50.1237 27.4844 50.8008L26.7422 51.2852H31.5V52.3945H25.1562L26.0156 52.7695C25.151 53.9362 24.3021 55.0091 23.4688 55.9883C25.4323 55.9206 27.237 55.8503 28.8828 55.7773C28.487 55.1419 28.1094 54.5612 27.75 54.0352L28.75 53.4102ZM18.2344 58.6758C19.0677 58.5612 20.1354 58.4049 21.4375 58.207C21.375 58.6237 21.3229 59.0091 21.2812 59.3633C19.9792 59.5404 18.4896 59.7643 16.8125 60.0352L16.5625 58.9102C17.2135 58.2435 17.987 57.1576 18.8828 55.6523C17.7995 55.7253 17.0208 55.7799 16.5469 55.8164L16.25 54.7539C17.1667 53.5456 18.1562 51.7018 19.2188 49.2227L20.4062 49.6914C19.3958 51.6706 18.474 53.3268 17.6406 54.6602C18.3229 54.6497 18.9375 54.6341 19.4844 54.6133C19.7969 54.056 20.125 53.4518 20.4688 52.8008L21.6406 53.3164C20.4531 55.3893 19.3177 57.1758 18.2344 58.6758ZM16.2031 61.957C17.9323 61.6237 19.7188 61.2487 21.5625 60.832C21.5208 61.3737 21.5 61.7487 21.5 61.957C19.6146 62.3737 17.9688 62.7695 16.5625 63.1445L16.2031 61.957ZM37.25 54.6289H41.7969V49.2539H43.1406V54.6289H47.7188V55.7539H43.1406V64.5664H41.7969V55.7539H37.25V54.6289ZM38.6875 60.2539C38.7188 60.7956 38.7552 61.2487 38.7969 61.6133C37.1302 62.6549 35.7552 63.5612 34.6719 64.332L33.9219 63.2695C34.2865 62.957 34.4688 62.4831 34.4688 61.8477V55.6602H32.25V54.5352H35.7188V62.1289C36.625 61.5768 37.6146 60.9518 38.6875 60.2539ZM33.8438 49.457C34.9792 50.6237 35.8021 51.4883 36.3125 52.0508L35.2188 52.9727C34.5625 52.1081 33.7865 51.2122 32.8906 50.2852L33.8438 49.457Z" fill="#73768B"/>
</svg>
