<svg width="64" height="65" viewBox="0 0 64 65" fill="none" xmlns="http://www.w3.org/2000/svg">
<rect y="0.512207" width="64" height="64" rx="12" fill="#3452CE"/>
<path fill-rule="evenodd" clip-rule="evenodd" d="M21.7235 23.4027C21.9736 23.1527 22.3127 23.0122 22.6663 23.0122H27.9645L30.001 26.0669C30.1864 26.3451 30.4987 26.5122 30.833 26.5122H41.333C41.6866 26.5122 42.0258 26.6527 42.2758 26.9027C42.5259 27.1528 42.6663 27.4919 42.6663 27.8455V40.6789C42.6663 41.0325 42.5259 41.3716 42.2758 41.6217C42.0258 41.8717 41.6866 42.0122 41.333 42.0122H22.6663C22.3127 42.0122 21.9736 41.8717 21.7235 41.6217C21.4735 41.3716 21.333 41.0325 21.333 40.6789V24.3455C21.333 23.9919 21.4735 23.6528 21.7235 23.4027ZM22.6663 21.0122C21.7823 21.0122 20.9344 21.3634 20.3093 21.9885C19.6842 22.6136 19.333 23.4615 19.333 24.3455V40.6789C19.333 41.5629 19.6842 42.4108 20.3093 43.0359C20.9344 43.661 21.7823 44.0122 22.6663 44.0122H41.333C42.2171 44.0122 43.0649 43.661 43.69 43.0359C44.3152 42.4108 44.6663 41.5629 44.6663 40.6789V27.8455C44.6663 26.9615 44.3152 26.1136 43.69 25.4885C43.0649 24.8634 42.2171 24.5122 41.333 24.5122H31.3682L29.3317 21.4575C29.1463 21.1793 28.834 21.0122 28.4997 21.0122H22.6663ZM28.4997 33.8455C27.9474 33.8455 27.4997 34.2933 27.4997 34.8455C27.4997 35.3978 27.9474 35.8455 28.4997 35.8455H35.4997C36.052 35.8455 36.4997 35.3978 36.4997 34.8455C36.4997 34.2933 36.052 33.8455 35.4997 33.8455H28.4997Z" fill="white"/>
</svg>
