<svg width="64" height="65" viewBox="0 0 64 65" fill="none" xmlns="http://www.w3.org/2000/svg">
<rect y="0.511719" width="64" height="64" rx="12" fill="#3452CE"/>
<path fill-rule="evenodd" clip-rule="evenodd" d="M28.5007 19.0117C28.9311 19.0117 29.3132 19.2871 29.4493 19.6955L35.5007 37.8494L38.052 30.1955C38.1881 29.7871 38.5702 29.5117 39.0007 29.5117H43.6673C44.2196 29.5117 44.6673 29.9594 44.6673 30.5117C44.6673 31.064 44.2196 31.5117 43.6673 31.5117H39.7214L36.4493 41.3279C36.3132 41.7363 35.9311 42.0117 35.5007 42.0117C35.0702 42.0117 34.6881 41.7363 34.552 41.3279L28.5007 23.174L25.9493 30.8279C25.8132 31.2363 25.4311 31.5117 25.0007 31.5117H20.334C19.7817 31.5117 19.334 31.064 19.334 30.5117C19.334 29.9594 19.7817 29.5117 20.334 29.5117H24.2799L27.552 19.6955C27.6881 19.2871 28.0702 19.0117 28.5007 19.0117Z" fill="white"/>
</svg>
