<svg width="72" height="73" viewBox="0 0 72 73" fill="none" xmlns="http://www.w3.org/2000/svg">
<g filter="url(#filter0_d_342_386)">
<rect x="4" y="0.512207" width="64" height="64" rx="12" fill="#3452CE" shape-rendering="crispEdges"/>
<path fill-rule="evenodd" clip-rule="evenodd" d="M26.9441 23.7688C26.5268 24.0977 26.5 24.3002 26.5 24.3457C26.5 24.3912 26.5268 24.5937 26.9441 24.9226C27.3502 25.2427 27.9998 25.5746 28.8916 25.8719C30.6648 26.463 33.1781 26.8457 36 26.8457C38.8219 26.8457 41.3352 26.463 43.1084 25.8719C44.0002 25.5746 44.6498 25.2427 45.0559 24.9226C45.4732 24.5937 45.5 24.3912 45.5 24.3457C45.5 24.3002 45.4732 24.0977 45.0559 23.7688C44.6498 23.4487 44.0002 23.1168 43.1084 22.8195C41.3352 22.2284 38.8219 21.8457 36 21.8457C33.1781 21.8457 30.6648 22.2284 28.8916 22.8195C27.9998 23.1168 27.3502 23.4487 26.9441 23.7688ZM45.5 27.0157C44.9823 27.3037 44.3862 27.5541 43.7408 27.7693C41.7138 28.4449 38.9771 28.8457 36 28.8457C33.0229 28.8457 30.2862 28.4449 28.2592 27.7693C27.6138 27.5541 27.0177 27.3037 26.5 27.0157V32.5124C26.5 32.5622 26.5285 32.7653 26.9414 33.0925C27.3443 33.4118 27.99 33.7432 28.8792 34.0401C30.6472 34.6303 33.1601 35.0124 36 35.0124C38.8399 35.0124 41.3528 34.6303 43.1208 34.0401C44.01 33.7432 44.6557 33.4118 45.0586 33.0925C45.4715 32.7653 45.5 32.5622 45.5 32.5124V27.0157ZM47.5 32.5124V24.3457C47.5 23.4247 46.9391 22.7065 46.2938 22.1979C45.6373 21.6805 44.7491 21.2582 43.7408 20.9221C41.7138 20.2465 38.9771 19.8457 36 19.8457C33.0229 19.8457 30.2862 20.2465 28.2592 20.9221C27.2509 21.2582 26.3627 21.6805 25.7062 22.1979C25.0609 22.7065 24.5 23.4247 24.5 24.3457V32.5124V40.679C24.5 41.5976 25.0549 42.3161 25.6992 42.8267C26.3536 43.3452 27.2392 43.7678 28.2458 44.1038C30.2694 44.7794 33.0066 45.179 36 45.179C38.9934 45.179 41.7306 44.7794 43.7542 44.1038C44.7608 43.7678 45.6464 43.3452 46.3007 42.8267C46.9451 42.3161 47.5 41.5976 47.5 40.679V32.5124ZM45.5 35.1883C44.986 35.4746 44.3946 35.7234 43.7542 35.9372C41.7306 36.6127 38.9934 37.0124 36 37.0124C33.0066 37.0124 30.2694 36.6127 28.2458 35.9372C27.6054 35.7234 27.014 35.4746 26.5 35.1883V40.679C26.5 40.7288 26.5285 40.932 26.9414 41.2592C27.3443 41.5785 27.99 41.9099 28.8792 42.2068C30.6472 42.797 33.1601 43.179 36 43.179C38.8399 43.179 41.3528 42.797 43.1208 42.2068C44.01 41.9099 44.6557 41.5785 45.0586 41.2592C45.4715 40.932 45.5 40.7288 45.5 40.679V35.1883Z" fill="white"/>
</g>
<defs>
<filter id="filter0_d_342_386" x="0" y="0.512207" width="72" height="72" filterUnits="userSpaceOnUse" color-interpolation-filters="sRGB">
<feFlood flood-opacity="0" result="BackgroundImageFix"/>
<feColorMatrix in="SourceAlpha" type="matrix" values="0 0 0 0 0 0 0 0 0 0 0 0 0 0 0 0 0 0 127 0" result="hardAlpha"/>
<feOffset dy="4"/>
<feGaussianBlur stdDeviation="2"/>
<feComposite in2="hardAlpha" operator="out"/>
<feColorMatrix type="matrix" values="0 0 0 0 0 0 0 0 0 0 0 0 0 0 0 0 0 0 0.25 0"/>
<feBlend mode="normal" in2="BackgroundImageFix" result="effect1_dropShadow_342_386"/>
<feBlend mode="normal" in="SourceGraphic" in2="effect1_dropShadow_342_386" result="shape"/>
</filter>
</defs>
</svg>
