<svg width="64" height="65" viewBox="0 0 64 65" fill="none" xmlns="http://www.w3.org/2000/svg">
<path fill-rule="evenodd" clip-rule="evenodd" d="M24.8337 15.6789C24.8337 13.6538 26.4753 12.0122 28.5003 12.0122C30.5254 12.0122 32.167 13.6538 32.167 15.6789C32.167 17.7039 30.5254 19.3455 28.5003 19.3455C26.4753 19.3455 24.8337 17.7039 24.8337 15.6789ZM28.5003 10.0122C25.3707 10.0122 22.8337 12.5493 22.8337 15.6789C22.8337 18.8085 25.3707 21.3455 28.5003 21.3455C31.6299 21.3455 34.167 18.8085 34.167 15.6789C34.167 12.5493 31.6299 10.0122 28.5003 10.0122ZM23.8337 24.0122C22.3308 24.0122 20.8894 24.6092 19.8267 25.6719C18.764 26.7346 18.167 28.176 18.167 29.6789V32.0122C18.167 32.5645 18.6147 33.0122 19.167 33.0122C19.7193 33.0122 20.167 32.5645 20.167 32.0122V29.6789C20.167 28.7064 20.5533 27.7738 21.2409 27.0861C21.9286 26.3985 22.8612 26.0122 23.8337 26.0122H33.167C34.1395 26.0122 35.0721 26.3985 35.7597 27.0861C36.4473 27.7738 36.8337 28.7064 36.8337 29.6789V32.0122C36.8337 32.5645 37.2814 33.0122 37.8337 33.0122C38.3859 33.0122 38.8337 32.5645 38.8337 32.0122V29.6789C38.8337 28.176 38.2366 26.7346 37.1739 25.6719C36.1112 24.6092 34.6699 24.0122 33.167 24.0122H23.8337ZM40.3654 24.9139C40.5035 24.3791 41.0489 24.0576 41.5837 24.1956C42.7993 24.5095 43.8764 25.2183 44.6456 26.2106C45.4148 27.2029 45.8327 28.4226 45.8337 29.6781V29.6789V32.0122C45.8337 32.5645 45.3859 33.0122 44.8337 33.0122C44.2814 33.0122 43.8337 32.5645 43.8337 32.0122V29.6796V29.6793C43.833 28.867 43.5626 28.0779 43.0649 27.4359C42.5672 26.7938 41.8703 26.3352 41.0837 26.1321C40.5489 25.9941 40.2273 25.4486 40.3654 24.9139ZM36.915 10.1951C36.38 10.0581 35.8352 10.3808 35.6982 10.9158C35.5613 11.4509 35.8839 11.9956 36.419 12.1326C37.2077 12.3346 37.9067 12.7933 38.406 13.4364C38.9052 14.0796 39.1761 14.8706 39.1761 15.6847C39.1761 16.4989 38.9052 17.2899 38.406 17.933C37.9067 18.5762 37.2077 19.0349 36.419 19.2368C35.8839 19.3738 35.5613 19.9186 35.6982 20.4536C35.8352 20.9886 36.38 21.3113 36.915 21.1743C38.134 20.8622 39.2143 20.1533 39.9859 19.1594C40.7574 18.1654 41.1761 16.943 41.1761 15.6847C41.1761 14.4265 40.7574 13.204 39.9859 12.2101C39.2143 11.2161 38.134 10.5072 36.915 10.1951Z" fill="#73768B"/>
<path d="M18.288 41.9522H30.064V53.6482C30.064 54.3415 29.936 54.8162 29.68 55.0722C29.4347 55.3389 29.0027 55.4829 28.384 55.5042C27.7547 55.5255 27.104 55.4935 26.432 55.4082L26.208 54.0962C26.9973 54.2029 27.5787 54.2562 27.952 54.2562C28.2933 54.2562 28.5173 54.1869 28.624 54.0482C28.7307 53.8989 28.784 53.6162 28.784 53.2002V50.9442H24.8V55.4082H23.536V50.9442H19.536C19.4613 51.8189 19.3067 52.6295 19.072 53.3762C18.848 54.1122 18.5013 54.9389 18.032 55.8562L16.848 55.2642C17.2747 54.4322 17.584 53.7335 17.776 53.1682C17.9787 52.6029 18.112 51.9842 18.176 51.3122C18.2507 50.6295 18.288 49.6855 18.288 48.4802V41.9522ZM23.536 45.8722V43.2162H19.6V45.8722H23.536ZM24.8 45.8722H28.784V43.2162H24.8V45.8722ZM19.6 49.6962H23.536V47.1202H19.6V48.9602V49.6962ZM24.8 47.1202V49.6962H28.784V47.1202H24.8ZM46.112 43.1362V49.1042H35.856C35.8133 50.1602 35.7227 51.0562 35.584 51.7922C35.4453 52.5175 35.2373 53.1895 34.96 53.8082C34.6933 54.4269 34.3147 55.0989 33.824 55.8242L32.56 55.1042C33.1253 54.3362 33.5467 53.6375 33.824 53.0082C34.112 52.3682 34.3093 51.6322 34.416 50.8002C34.5333 49.9575 34.592 48.8375 34.592 47.4402V43.1362H39.856C39.376 42.1975 39.0453 41.5842 38.864 41.2962L40.24 40.8642C40.4427 41.1949 40.832 41.9522 41.408 43.1362H46.112ZM35.888 47.8562H44.816V44.3362H35.888V47.1842V47.8562Z" fill="#73768B"/>
</svg>
