<svg width="64" height="65" viewBox="0 0 64 65" fill="none" xmlns="http://www.w3.org/2000/svg">
<rect y="0.511719" width="64" height="64" rx="12" fill="#3452CE"/>
<g clip-path="url(#clip0_342_617)">
<path d="M32 36.0117C33.933 36.0117 35.5 34.4447 35.5 32.5117C35.5 30.5787 33.933 29.0117 32 29.0117C30.067 29.0117 28.5 30.5787 28.5 32.5117C28.5 34.4447 30.067 36.0117 32 36.0117Z" stroke="white" stroke-width="2" stroke-linecap="round" stroke-linejoin="round"/>
<path d="M40.6337 36.012C40.4784 36.3639 40.432 36.7543 40.5007 37.1327C40.5693 37.5112 40.7497 37.8604 41.0187 38.1354L41.0887 38.2054C41.3056 38.4221 41.4777 38.6794 41.5951 38.9627C41.7126 39.2459 41.773 39.5496 41.773 39.8562C41.773 40.1628 41.7126 40.4665 41.5951 40.7497C41.4777 41.033 41.3056 41.2903 41.0887 41.507C40.872 41.724 40.6146 41.8961 40.3314 42.0135C40.0481 42.1309 39.7445 42.1914 39.4378 42.1914C39.1312 42.1914 38.8276 42.1309 38.5443 42.0135C38.261 41.8961 38.0037 41.724 37.787 41.507L37.717 41.437C37.442 41.1681 37.0928 40.9877 36.7143 40.919C36.3359 40.8504 35.9455 40.8967 35.5937 41.052C35.2486 41.1999 34.9543 41.4455 34.747 41.7585C34.5397 42.0715 34.4285 42.4383 34.427 42.8137V43.012C34.427 43.6309 34.1812 44.2244 33.7436 44.662C33.306 45.0995 32.7125 45.3454 32.0937 45.3454C31.4748 45.3454 30.8813 45.0995 30.4437 44.662C30.0062 44.2244 29.7603 43.6309 29.7603 43.012V42.907C29.7513 42.5209 29.6263 42.1464 29.4016 41.8322C29.1769 41.518 28.8629 41.2787 28.5003 41.1454C28.1484 40.9901 27.7581 40.9438 27.3796 41.0124C27.0012 41.081 26.652 41.2614 26.377 41.5304L26.307 41.6004C26.0903 41.8173 25.8329 41.9894 25.5497 42.1069C25.2664 42.2243 24.9628 42.2847 24.6562 42.2847C24.3495 42.2847 24.0459 42.2243 23.7626 42.1069C23.4794 41.9894 23.222 41.8173 23.0053 41.6004C22.7884 41.3837 22.6163 41.1263 22.4989 40.8431C22.3814 40.5598 22.321 40.2562 22.321 39.9495C22.321 39.6429 22.3814 39.3393 22.4989 39.056C22.6163 38.7728 22.7884 38.5154 23.0053 38.2987L23.0753 38.2287C23.3443 37.9538 23.5247 37.6045 23.5933 37.2261C23.662 36.8476 23.6156 36.4573 23.4603 36.1054C23.3124 35.7603 23.0669 35.466 22.7539 35.2587C22.4409 35.0514 22.0741 34.9402 21.6987 34.9387H21.5003C20.8815 34.9387 20.288 34.6929 19.8504 34.2553C19.4128 33.8177 19.167 33.2242 19.167 32.6054C19.167 31.9865 19.4128 31.393 19.8504 30.9555C20.288 30.5179 20.8815 30.272 21.5003 30.272H21.6053C21.9915 30.263 22.366 30.138 22.6802 29.9133C22.9944 29.6886 23.2337 29.3746 23.367 29.012C23.5223 28.6602 23.5686 28.2698 23.5 27.8914C23.4314 27.5129 23.251 27.1637 22.982 26.8887L22.912 26.8187C22.695 26.602 22.5229 26.3447 22.4055 26.0614C22.2881 25.7781 22.2277 25.4745 22.2277 25.1679C22.2277 24.8612 22.2881 24.5576 22.4055 24.2744C22.5229 23.9911 22.695 23.7337 22.912 23.517C23.1287 23.3001 23.386 23.128 23.6693 23.0106C23.9526 22.8931 24.2562 22.8327 24.5628 22.8327C24.8695 22.8327 25.1731 22.8931 25.4564 23.0106C25.7396 23.128 25.997 23.3001 26.2137 23.517L26.2837 23.587C26.5586 23.856 26.9078 24.0364 27.2863 24.105C27.6648 24.1737 28.0551 24.1273 28.407 23.972H28.5003C28.8454 23.8242 29.1397 23.5786 29.347 23.2656C29.5543 22.9526 29.6655 22.5858 29.667 22.2104V22.012C29.667 21.3932 29.9128 20.7997 30.3504 20.3621C30.788 19.9245 31.3815 19.6787 32.0003 19.6787C32.6192 19.6787 33.2127 19.9245 33.6502 20.3621C34.0878 20.7997 34.3337 21.3932 34.3337 22.012V22.117C34.3352 22.4925 34.4464 22.8592 34.6537 23.1723C34.861 23.4853 35.1553 23.7308 35.5003 23.8787C35.8522 24.034 36.2426 24.0803 36.621 24.0117C36.9995 23.9431 37.3487 23.7627 37.6237 23.4937L37.6937 23.4237C37.9104 23.2068 38.1677 23.0347 38.451 22.9172C38.7342 22.7998 39.0379 22.7394 39.3445 22.7394C39.6511 22.7394 39.9548 22.7998 40.238 22.9172C40.5213 23.0347 40.7786 23.2068 40.9953 23.4237C41.2123 23.6404 41.3844 23.8978 41.5018 24.181C41.6192 24.4643 41.6797 24.7679 41.6797 25.0745C41.6797 25.3812 41.6192 25.6848 41.5018 25.9681C41.3844 26.2513 41.2123 26.5087 40.9953 26.7254L40.9253 26.7954C40.6564 27.0703 40.4759 27.4196 40.4073 27.798C40.3387 28.1765 40.385 28.5668 40.5403 28.9187V29.012C40.6882 29.3571 40.9338 29.6514 41.2468 29.8587C41.5598 30.066 41.9266 30.1772 42.302 30.1787H42.5003C43.1192 30.1787 43.7127 30.4245 44.1502 30.8621C44.5878 31.2997 44.8337 31.8932 44.8337 32.512C44.8337 33.1309 44.5878 33.7244 44.1502 34.162C43.7127 34.5995 43.1192 34.8454 42.5003 34.8454H42.3953C42.0199 34.8469 41.6531 34.9581 41.3401 35.1654C41.0271 35.3727 40.7815 35.667 40.6337 36.012V36.012Z" stroke="white" stroke-width="2" stroke-linecap="round" stroke-linejoin="round"/>
</g>
<defs>
<clipPath id="clip0_342_617">
<rect width="28" height="28" fill="white" transform="translate(18 18.5117)"/>
</clipPath>
</defs>
</svg>
