<svg width="64" height="65" viewBox="0 0 64 65" fill="none" xmlns="http://www.w3.org/2000/svg">
<rect y="0.512207" width="64" height="64" rx="12" fill="#3452CE"/>
<path fill-rule="evenodd" clip-rule="evenodd" d="M24.8337 26.6789C24.8337 24.6538 26.4753 23.0122 28.5003 23.0122C30.5254 23.0122 32.167 24.6538 32.167 26.6789C32.167 28.7039 30.5254 30.3455 28.5003 30.3455C26.4753 30.3455 24.8337 28.7039 24.8337 26.6789ZM28.5003 21.0122C25.3707 21.0122 22.8337 23.5493 22.8337 26.6789C22.8337 29.8085 25.3707 32.3455 28.5003 32.3455C31.6299 32.3455 34.167 29.8085 34.167 26.6789C34.167 23.5493 31.6299 21.0122 28.5003 21.0122ZM23.8337 35.0122C22.3308 35.0122 20.8894 35.6092 19.8267 36.6719C18.764 37.7346 18.167 39.176 18.167 40.6789V43.0122C18.167 43.5645 18.6147 44.0122 19.167 44.0122C19.7193 44.0122 20.167 43.5645 20.167 43.0122V40.6789C20.167 39.7064 20.5533 38.7738 21.2409 38.0861C21.9286 37.3985 22.8612 37.0122 23.8337 37.0122H33.167C34.1395 37.0122 35.0721 37.3985 35.7597 38.0861C36.4473 38.7738 36.8337 39.7064 36.8337 40.6789V43.0122C36.8337 43.5645 37.2814 44.0122 37.8337 44.0122C38.3859 44.0122 38.8337 43.5645 38.8337 43.0122V40.6789C38.8337 39.176 38.2366 37.7346 37.1739 36.6719C36.1112 35.6092 34.6699 35.0122 33.167 35.0122H23.8337ZM40.3654 35.9139C40.5035 35.3791 41.0489 35.0576 41.5837 35.1956C42.7993 35.5095 43.8764 36.2183 44.6456 37.2106C45.4148 38.2029 45.8327 39.4226 45.8337 40.6781V40.6789V43.0122C45.8337 43.5645 45.3859 44.0122 44.8337 44.0122C44.2814 44.0122 43.8337 43.5645 43.8337 43.0122V40.6796V40.6793C43.833 39.867 43.5626 39.0779 43.0649 38.4359C42.5672 37.7938 41.8703 37.3352 41.0837 37.1321C40.5489 36.9941 40.2273 36.4486 40.3654 35.9139ZM36.915 21.1951C36.38 21.0581 35.8352 21.3808 35.6982 21.9158C35.5613 22.4509 35.8839 22.9956 36.419 23.1326C37.2077 23.3346 37.9067 23.7933 38.406 24.4364C38.9052 25.0796 39.1761 25.8706 39.1761 26.6847C39.1761 27.4989 38.9052 28.2899 38.406 28.933C37.9067 29.5762 37.2077 30.0349 36.419 30.2368C35.8839 30.3738 35.5613 30.9186 35.6982 31.4536C35.8352 31.9886 36.38 32.3113 36.915 32.1743C38.134 31.8622 39.2143 31.1533 39.9859 30.1594C40.7574 29.1654 41.1761 27.943 41.1761 26.6847C41.1761 25.4265 40.7574 24.204 39.9859 23.2101C39.2143 22.2161 38.134 21.5072 36.915 21.1951Z" fill="white"/>
</svg>
