<svg width="64" height="65" viewBox="0 0 64 65" fill="none" xmlns="http://www.w3.org/2000/svg">
<path fill-rule="evenodd" clip-rule="evenodd" d="M22.9441 12.7688C22.5268 13.0977 22.5 13.3002 22.5 13.3457C22.5 13.3912 22.5268 13.5937 22.9441 13.9226C23.3502 14.2427 23.9998 14.5746 24.8916 14.8719C26.6648 15.463 29.1781 15.8457 32 15.8457C34.8219 15.8457 37.3352 15.463 39.1084 14.8719C40.0002 14.5746 40.6498 14.2427 41.0559 13.9226C41.4732 13.5937 41.5 13.3912 41.5 13.3457C41.5 13.3002 41.4732 13.0977 41.0559 12.7688C40.6498 12.4487 40.0002 12.1168 39.1084 11.8195C37.3352 11.2284 34.8219 10.8457 32 10.8457C29.1781 10.8457 26.6648 11.2284 24.8916 11.8195C23.9998 12.1168 23.3502 12.4487 22.9441 12.7688ZM41.5 16.0157C40.9823 16.3037 40.3862 16.5541 39.7408 16.7693C37.7138 17.4449 34.9771 17.8457 32 17.8457C29.0229 17.8457 26.2862 17.4449 24.2592 16.7693C23.6138 16.5541 23.0177 16.3037 22.5 16.0157V21.5124C22.5 21.5622 22.5285 21.7653 22.9414 22.0925C23.3443 22.4118 23.99 22.7432 24.8792 23.0401C26.6472 23.6303 29.1601 24.0124 32 24.0124C34.8399 24.0124 37.3528 23.6303 39.1208 23.0401C40.01 22.7432 40.6557 22.4118 41.0586 22.0925C41.4715 21.7653 41.5 21.5622 41.5 21.5124V16.0157ZM43.5 21.5124V13.3457C43.5 12.4247 42.9391 11.7065 42.2938 11.1979C41.6373 10.6805 40.7491 10.2582 39.7408 9.92215C37.7138 9.24646 34.9771 8.8457 32 8.8457C29.0229 8.8457 26.2862 9.24646 24.2592 9.92215C23.2509 10.2582 22.3627 10.6805 21.7062 11.1979C21.0609 11.7065 20.5 12.4247 20.5 13.3457V21.5124V29.679C20.5 30.5976 21.0549 31.3161 21.6992 31.8267C22.3536 32.3452 23.2392 32.7678 24.2458 33.1038C26.2694 33.7794 29.0066 34.179 32 34.179C34.9934 34.179 37.7306 33.7794 39.7542 33.1038C40.7608 32.7678 41.6464 32.3452 42.3007 31.8267C42.9451 31.3161 43.5 30.5976 43.5 29.679V21.5124ZM41.5 24.1883C40.986 24.4746 40.3946 24.7234 39.7542 24.9372C37.7306 25.6127 34.9934 26.0124 32 26.0124C29.0066 26.0124 26.2694 25.6127 24.2458 24.9372C23.6054 24.7234 23.014 24.4746 22.5 24.1883V29.679C22.5 29.7288 22.5285 29.932 22.9414 30.2592C23.3443 30.5785 23.99 30.9099 24.8792 31.2068C26.6472 31.797 29.1601 32.179 32 32.179C34.8399 32.179 37.3528 31.797 39.1208 31.2068C40.01 30.9099 40.6557 30.5785 41.0586 30.2592C41.4715 29.932 41.5 29.7288 41.5 29.679V24.1883Z" fill="#73768B"/>
<path d="M24.672 53.8562H31.136V55.1042H16.864V53.8562H23.36V49.7282H18.08V48.5442H23.36V45.1042H17.392V43.8722H24.032C23.5413 42.9442 23.0507 42.1122 22.56 41.3762L23.696 40.7202C24.1227 41.3815 24.4853 41.9682 24.784 42.4802L25.248 43.2322L24.144 43.8722H30.608V45.1042H24.672V48.5442H29.92V49.7282H24.672V53.8562ZM38.656 45.1522C38.784 44.7469 38.9813 44.0322 39.248 43.0082H33.152V41.8242H46.704V43.0082H40.768C40.544 43.8189 40.336 44.5335 40.144 45.1522H45.152V51.8242H43.904V46.3842H35.968V51.8882H34.72V45.1522H38.656ZM46.096 55.6322C44.0693 54.5015 41.9787 53.3762 39.824 52.2562C39.376 52.9282 38.656 53.5309 37.664 54.0642C36.672 54.5975 35.264 55.1362 33.44 55.6802L32.816 54.3842C34.6613 53.8935 36.032 53.4135 36.928 52.9442C37.8347 52.4642 38.4373 51.9415 38.736 51.3762C39.0453 50.8109 39.2213 50.0589 39.264 49.1202C39.2747 48.8749 39.28 48.2775 39.28 47.3282H40.608C40.608 48.3095 40.6027 48.9335 40.592 49.2002C40.5707 49.9575 40.4907 50.5922 40.352 51.1042L43.936 52.8962C44.64 53.2589 45.5787 53.7335 46.752 54.3202L46.096 55.6322Z" fill="#73768B"/>
</svg>
