<svg width="28" height="29" viewBox="0 0 28 29" fill="none" xmlns="http://www.w3.org/2000/svg">
<g clip-path="url(#clip0_645_820)">
<path d="M14 18.0117C15.933 18.0117 17.5 16.4447 17.5 14.5117C17.5 12.5787 15.933 11.0117 14 11.0117C12.067 11.0117 10.5 12.5787 10.5 14.5117C10.5 16.4447 12.067 18.0117 14 18.0117Z" stroke="white" stroke-width="2" stroke-linecap="round" stroke-linejoin="round"/>
<path d="M22.6337 18.012C22.4784 18.3639 22.432 18.7543 22.5007 19.1327C22.5693 19.5112 22.7497 19.8604 23.0187 20.1354L23.0887 20.2054C23.3056 20.4221 23.4777 20.6794 23.5951 20.9627C23.7126 21.2459 23.773 21.5496 23.773 21.8562C23.773 22.1628 23.7126 22.4665 23.5951 22.7497C23.4777 23.033 23.3056 23.2903 23.0887 23.507C22.872 23.724 22.6146 23.8961 22.3314 24.0135C22.0481 24.1309 21.7445 24.1914 21.4378 24.1914C21.1312 24.1914 20.8276 24.1309 20.5443 24.0135C20.261 23.8961 20.0037 23.724 19.787 23.507L19.717 23.437C19.442 23.1681 19.0928 22.9877 18.7143 22.919C18.3359 22.8504 17.9455 22.8967 17.5937 23.052C17.2486 23.1999 16.9543 23.4455 16.747 23.7585C16.5397 24.0715 16.4285 24.4383 16.427 24.8137V25.012C16.427 25.6309 16.1812 26.2244 15.7436 26.662C15.306 27.0995 14.7125 27.3454 14.0937 27.3454C13.4748 27.3454 12.8813 27.0995 12.4437 26.662C12.0062 26.2244 11.7603 25.6309 11.7603 25.012V24.907C11.7513 24.5209 11.6263 24.1464 11.4016 23.8322C11.1769 23.518 10.8629 23.2787 10.5003 23.1454C10.1484 22.9901 9.7581 22.9438 9.37964 23.0124C9.00118 23.081 8.65195 23.2614 8.37699 23.5304L8.30699 23.6004C8.09029 23.8173 7.83295 23.9894 7.54969 24.1069C7.26642 24.2243 6.9628 24.2847 6.65616 24.2847C6.34952 24.2847 6.04589 24.2243 5.76263 24.1069C5.47937 23.9894 5.22203 23.8173 5.00533 23.6004C4.78838 23.3837 4.61628 23.1263 4.49885 22.8431C4.38143 22.5598 4.32099 22.2562 4.32099 21.9495C4.32099 21.6429 4.38143 21.3393 4.49885 21.056C4.61628 20.7728 4.78838 20.5154 5.00533 20.2987L5.07533 20.2287C5.34429 19.9538 5.52471 19.6045 5.59333 19.2261C5.66195 18.8476 5.61563 18.4573 5.46033 18.1054C5.31244 17.7603 5.06687 17.466 4.75387 17.2587C4.44086 17.0514 4.07408 16.9402 3.69866 16.9387H3.50033C2.88149 16.9387 2.28799 16.6929 1.85041 16.2553C1.41282 15.8177 1.16699 15.2242 1.16699 14.6054C1.16699 13.9865 1.41282 13.393 1.85041 12.9555C2.28799 12.5179 2.88149 12.272 3.50033 12.272H3.60533C3.99149 12.263 4.366 12.138 4.68017 11.9133C4.99435 11.6886 5.23366 11.3746 5.36699 11.012C5.52229 10.6602 5.56862 10.2698 5.5 9.89136C5.43138 9.5129 5.25095 9.16367 4.98199 8.88871L4.91199 8.81871C4.69505 8.60201 4.52294 8.34467 4.40552 8.06141C4.2881 7.77814 4.22766 7.47451 4.22766 7.16788C4.22766 6.86124 4.2881 6.55761 4.40552 6.27435C4.52294 5.99109 4.69505 5.73375 4.91199 5.51704C5.1287 5.3001 5.38604 5.128 5.6693 5.01057C5.95256 4.89315 6.25619 4.83271 6.56283 4.83271C6.86946 4.83271 7.17309 4.89315 7.45635 5.01057C7.73962 5.128 7.99696 5.3001 8.21366 5.51704L8.28366 5.58704C8.55862 5.856 8.90784 6.03643 9.28631 6.10505C9.66477 6.17367 10.0551 6.12735 10.407 5.97204H10.5003C10.8454 5.82415 11.1397 5.57859 11.347 5.26559C11.5543 4.95258 11.6655 4.5858 11.667 4.21038V4.01204C11.667 3.39321 11.9128 2.79971 12.3504 2.36213C12.788 1.92454 13.3815 1.67871 14.0003 1.67871C14.6192 1.67871 15.2127 1.92454 15.6502 2.36213C16.0878 2.79971 16.3337 3.39321 16.3337 4.01204V4.11704C16.3352 4.49246 16.4464 4.85925 16.6537 5.17225C16.861 5.48526 17.1553 5.73082 17.5003 5.87871C17.8522 6.03401 18.2426 6.08034 18.621 6.01172C18.9995 5.94309 19.3487 5.76267 19.6237 5.49371L19.6937 5.42371C19.9104 5.20677 20.1677 5.03466 20.451 4.91724C20.7342 4.79982 21.0379 4.73938 21.3445 4.73938C21.6511 4.73938 21.9548 4.79982 22.238 4.91724C22.5213 5.03466 22.7786 5.20677 22.9953 5.42371C23.2123 5.64042 23.3844 5.89776 23.5018 6.18102C23.6192 6.46428 23.6797 6.76791 23.6797 7.07454C23.6797 7.38118 23.6192 7.68481 23.5018 7.96807C23.3844 8.25133 23.2123 8.50867 22.9953 8.72538L22.9253 8.79538C22.6564 9.07034 22.4759 9.41956 22.4073 9.79802C22.3387 10.1765 22.385 10.5668 22.5403 10.9187V11.012C22.6882 11.3571 22.9338 11.6514 23.2468 11.8587C23.5598 12.066 23.9266 12.1772 24.302 12.1787H24.5003C25.1192 12.1787 25.7127 12.4245 26.1502 12.8621C26.5878 13.2997 26.8337 13.8932 26.8337 14.512C26.8337 15.1309 26.5878 15.7244 26.1502 16.162C25.7127 16.5995 25.1192 16.8454 24.5003 16.8454H24.3953C24.0199 16.8469 23.6531 16.9581 23.3401 17.1654C23.0271 17.3727 22.7815 17.667 22.6337 18.012V18.012Z" stroke="white" stroke-width="2" stroke-linecap="round" stroke-linejoin="round"/>
</g>
<defs>
<clipPath id="clip0_645_820">
<rect width="28" height="28" fill="white" transform="translate(0 0.511719)"/>
</clipPath>
</defs>
</svg>
