<svg width="28" height="29" viewBox="0 0 28 29" fill="none" xmlns="http://www.w3.org/2000/svg">
<path fill-rule="evenodd" clip-rule="evenodd" d="M4.94412 5.76876C4.52676 6.09767 4.5 6.30019 4.5 6.3457C4.5 6.39122 4.52676 6.59374 4.94412 6.92265C5.3502 7.24268 5.99978 7.57462 6.89161 7.87189C8.66481 8.46296 11.1781 8.8457 14 8.8457C16.8219 8.8457 19.3352 8.46296 21.1084 7.87189C22.0002 7.57462 22.6498 7.24268 23.0559 6.92265C23.4732 6.59374 23.5 6.39122 23.5 6.3457C23.5 6.30019 23.4732 6.09767 23.0559 5.76876C22.6498 5.44873 22.0002 5.11679 21.1084 4.81951C19.3352 4.22844 16.8219 3.8457 14 3.8457C11.1781 3.8457 8.66481 4.22844 6.89161 4.81951C5.99978 5.11679 5.3502 5.44873 4.94412 5.76876ZM23.5 9.01567C22.9823 9.30374 22.3862 9.55414 21.7408 9.76926C19.7138 10.4449 16.9771 10.8457 14 10.8457C11.0229 10.8457 8.2862 10.4449 6.25915 9.76926C5.6138 9.55414 5.01769 9.30374 4.5 9.01567V14.5124C4.5 14.5622 4.52847 14.7653 4.94138 15.0925C5.3443 15.4118 5.98996 15.7432 6.87917 16.0401C8.64724 16.6303 11.1601 17.0124 14 17.0124C16.8399 17.0124 19.3528 16.6303 21.1208 16.0401C22.01 15.7432 22.6557 15.4118 23.0586 15.0925C23.4715 14.7653 23.5 14.5622 23.5 14.5124V9.01567ZM25.5 14.5124V6.3457C25.5 5.42472 24.9391 4.70649 24.2938 4.19793C23.6373 3.68049 22.7491 3.25825 21.7408 2.92215C19.7138 2.24646 16.9771 1.8457 14 1.8457C11.0229 1.8457 8.2862 2.24646 6.25915 2.92215C5.25085 3.25825 4.36274 3.68049 3.70617 4.19793C3.06087 4.70649 2.5 5.42472 2.5 6.3457V14.5124V22.679C2.5 23.5976 3.05486 24.3161 3.69925 24.8267C4.35362 25.3452 5.23921 25.7678 6.24583 26.1038C8.26942 26.7794 11.0066 27.179 14 27.179C16.9934 27.179 19.7306 26.7794 21.7542 26.1038C22.7608 25.7678 23.6464 25.3452 24.3007 24.8267C24.9451 24.3161 25.5 23.5976 25.5 22.679V14.5124ZM23.5 17.1883C22.986 17.4746 22.3946 17.7234 21.7542 17.9372C19.7306 18.6127 16.9934 19.0124 14 19.0124C11.0066 19.0124 8.26942 18.6127 6.24583 17.9372C5.60545 17.7234 5.01405 17.4746 4.5 17.1883V22.679C4.5 22.7288 4.52847 22.932 4.94138 23.2592C5.3443 23.5785 5.98996 23.9099 6.87917 24.2068C8.64724 24.797 11.1601 25.179 14 25.179C16.8399 25.179 19.3528 24.797 21.1208 24.2068C22.01 23.9099 22.6557 23.5785 23.0586 23.2592C23.4715 22.932 23.5 22.7288 23.5 22.679V17.1883Z" fill="white"/>
</svg>
