<svg width="64" height="65" viewBox="0 0 64 65" fill="none" xmlns="http://www.w3.org/2000/svg">
<path fill-rule="evenodd" clip-rule="evenodd" d="M21.7235 12.4027C21.9736 12.1527 22.3127 12.0122 22.6663 12.0122H27.9645L30.001 15.0669C30.1864 15.3451 30.4987 15.5122 30.833 15.5122H41.333C41.6866 15.5122 42.0258 15.6527 42.2758 15.9027C42.5259 16.1528 42.6663 16.4919 42.6663 16.8455V29.6789C42.6663 30.0325 42.5259 30.3716 42.2758 30.6217C42.0258 30.8717 41.6866 31.0122 41.333 31.0122H22.6663C22.3127 31.0122 21.9736 30.8717 21.7235 30.6217C21.4735 30.3716 21.333 30.0325 21.333 29.6789V13.3455C21.333 12.9919 21.4735 12.6528 21.7235 12.4027ZM22.6663 10.0122C21.7823 10.0122 20.9344 10.3634 20.3093 10.9885C19.6842 11.6136 19.333 12.4615 19.333 13.3455V29.6789C19.333 30.5629 19.6842 31.4108 20.3093 32.0359C20.9344 32.661 21.7823 33.0122 22.6663 33.0122H41.333C42.2171 33.0122 43.0649 32.661 43.69 32.0359C44.3152 31.4108 44.6663 30.5629 44.6663 29.6789V16.8455C44.6663 15.9615 44.3152 15.1136 43.69 14.4885C43.0649 13.8634 42.2171 13.5122 41.333 13.5122H31.3682L29.3317 10.4575C29.1463 10.1793 28.834 10.0122 28.4997 10.0122H22.6663ZM28.4997 22.8455C27.9474 22.8455 27.4997 23.2933 27.4997 23.8455C27.4997 24.3978 27.9474 24.8455 28.4997 24.8455H35.4997C36.052 24.8455 36.4997 24.3978 36.4997 23.8455C36.4997 23.2933 36.052 22.8455 35.4997 22.8455H28.4997Z" fill="#73768B"/>
<path d="M30.784 55.6322C29.312 55.1095 28.0213 54.5655 26.912 54.0002C25.8027 53.4242 24.832 52.7949 24 52.1122C23.1787 52.7949 22.2187 53.4295 21.12 54.0162C20.0213 54.6029 18.7413 55.1682 17.28 55.7122L16.656 54.4162C18.0747 53.9255 19.3013 53.4242 20.336 52.9122C21.3813 52.4002 22.2827 51.8402 23.04 51.2322C22.2187 50.4109 21.5253 49.4775 20.96 48.4322C20.4053 47.3762 19.936 46.1602 19.552 44.7842H17.008V43.5202H23.536C23.3227 42.7949 23.0827 42.0855 22.816 41.3922L24.128 41.0402C24.416 41.7975 24.6933 42.6242 24.96 43.5202H30.944V44.7842H28.352C27.9893 46.1709 27.536 47.3869 26.992 48.4322C26.448 49.4775 25.7653 50.4162 24.944 51.2482C26.4693 52.4535 28.5973 53.4722 31.328 54.3042L30.784 55.6322ZM20.928 44.7842C21.248 45.9682 21.6533 47.0189 22.144 47.9362C22.6347 48.8535 23.248 49.6749 23.984 50.4002C24.6987 49.6749 25.2907 48.8589 25.76 47.9522C26.24 47.0349 26.6293 45.9789 26.928 44.7842H20.928ZM47.36 49.4242V50.6402H43.12V55.7282H41.856V50.6402H37.008V49.4242H41.856V45.6802H39.216C38.8853 46.6935 38.56 47.5629 38.24 48.2882L37.024 47.8242C37.4187 46.9495 37.7867 45.9949 38.128 44.9602C38.48 43.9149 38.768 42.9015 38.992 41.9202L40.144 42.2082C40.0267 42.7629 39.8453 43.4989 39.6 44.4162H41.856V41.0082H43.12V44.4162H46.784V45.6802H43.12V49.4242H47.36ZM37.152 41.4242C36.8 42.6722 36.4 43.8189 35.952 44.8642V55.6802H34.736V47.3442C34.2453 48.2189 33.696 49.0402 33.088 49.8082L32.496 48.3842C33.1467 47.4775 33.7867 46.3469 34.416 44.9922C35.056 43.6375 35.552 42.3255 35.904 41.0562L37.152 41.4242Z" fill="#73768B"/>
</svg>
