<svg width="28" height="29" viewBox="0 0 28 29" fill="none" xmlns="http://www.w3.org/2000/svg">
<path fill-rule="evenodd" clip-rule="evenodd" d="M3.72353 5.40273C3.97358 5.15268 4.31272 5.01221 4.66634 5.01221H9.96449L12.001 8.06691C12.1864 8.34511 12.4987 8.51221 12.833 8.51221H23.333C23.6866 8.51221 24.0258 8.65268 24.2758 8.90273C24.5259 9.15278 24.6663 9.49192 24.6663 9.84554V22.6789C24.6663 23.0325 24.5259 23.3716 24.2758 23.6217C24.0258 23.8717 23.6866 24.0122 23.333 24.0122H4.66634C4.31272 24.0122 3.97358 23.8717 3.72353 23.6217C3.47348 23.3716 3.33301 23.0325 3.33301 22.6789V6.34554C3.33301 5.99192 3.47348 5.65278 3.72353 5.40273ZM4.66634 3.01221C3.78229 3.01221 2.93444 3.3634 2.30932 3.98852C1.6842 4.61364 1.33301 5.46149 1.33301 6.34554V22.6789C1.33301 23.5629 1.6842 24.4108 2.30932 25.0359C2.93444 25.661 3.78229 26.0122 4.66634 26.0122H23.333C24.2171 26.0122 25.0649 25.661 25.69 25.0359C26.3152 24.4108 26.6663 23.5629 26.6663 22.6789V9.84554C26.6663 8.96148 26.3152 8.11364 25.69 7.48852C25.0649 6.8634 24.2171 6.51221 23.333 6.51221H13.3682L11.3317 3.45751C11.1463 3.17931 10.834 3.01221 10.4997 3.01221H4.66634ZM10.4997 15.8455C9.94739 15.8455 9.49967 16.2933 9.49967 16.8455C9.49967 17.3978 9.94739 17.8455 10.4997 17.8455H17.4997C18.052 17.8455 18.4997 17.3978 18.4997 16.8455C18.4997 16.2933 18.052 15.8455 17.4997 15.8455H10.4997Z" fill="white"/>
</svg>
