<svg width="64" height="65" viewBox="0 0 64 65" fill="none" xmlns="http://www.w3.org/2000/svg">
<path fill-rule="evenodd" clip-rule="evenodd" d="M28.5007 10.0122C28.9311 10.0122 29.3132 10.2876 29.4493 10.696L35.5007 28.8499L38.052 21.196C38.1881 20.7876 38.5702 20.5122 39.0007 20.5122H43.6673C44.2196 20.5122 44.6673 20.9599 44.6673 21.5122C44.6673 22.0645 44.2196 22.5122 43.6673 22.5122H39.7214L36.4493 32.3284C36.3132 32.7368 35.9311 33.0122 35.5007 33.0122C35.0702 33.0122 34.6881 32.7368 34.552 32.3284L28.5007 14.1745L25.9493 21.8284C25.8132 22.2368 25.4311 22.5122 25.0007 22.5122H20.334C19.7817 22.5122 19.334 22.0645 19.334 21.5122C19.334 20.9599 19.7817 20.5122 20.334 20.5122H24.2799L27.552 10.696C27.6881 10.2876 28.0702 10.0122 28.5007 10.0122Z" fill="#73768B"/>
<path d="M28.75 46.4106C29.625 47.5877 30.5208 48.9159 31.4375 50.395C31.0729 50.6034 30.6875 50.8377 30.2812 51.0981C30.0208 50.6554 29.7708 50.231 29.5312 49.8247C29.0469 49.856 28.5469 49.8846 28.0312 49.9106V55.2075C28.0312 55.8429 28.2656 56.1606 28.7344 56.1606H29.5C30.0104 56.1606 30.3021 55.9002 30.375 55.3794C30.4583 54.7544 30.5104 54.0773 30.5312 53.3481C30.875 53.494 31.2917 53.645 31.7812 53.8013C31.6979 54.7075 31.6094 55.4106 31.5156 55.9106C31.3698 56.8169 30.8229 57.27 29.875 57.27H28.5312C27.3958 57.27 26.8281 56.619 26.8281 55.3169V49.981C26.2448 50.0122 25.6406 50.0487 25.0156 50.0903C24.9323 52.356 24.6406 53.9367 24.1406 54.8325C23.5469 55.9784 22.4375 56.9263 20.8125 57.6763C20.5833 57.3534 20.3177 57.0044 20.0156 56.6294C21.526 56.0148 22.5365 55.2075 23.0469 54.2075C23.5156 53.4106 23.7682 52.0643 23.8047 50.1685C23.5911 50.1841 23.375 50.1971 23.1562 50.2075C22.7083 50.2492 22.2917 50.3169 21.9062 50.4106L21.375 49.1919C21.8229 49.0044 22.1823 48.7544 22.4531 48.4419C23.2344 47.5096 23.9688 46.494 24.6562 45.395H21.25V44.2856H26.2344C25.8438 43.6867 25.474 43.1554 25.125 42.6919L26.1562 42.0513C26.5521 42.5409 26.9948 43.1242 27.4844 43.8013L26.7422 44.2856H31.5V45.395H25.1562L26.0156 45.77C25.151 46.9367 24.3021 48.0096 23.4688 48.9888C25.4323 48.9211 27.237 48.8507 28.8828 48.7778C28.487 48.1424 28.1094 47.5617 27.75 47.0356L28.75 46.4106ZM18.2344 51.6763C19.0677 51.5617 20.1354 51.4054 21.4375 51.2075C21.375 51.6242 21.3229 52.0096 21.2812 52.3638C19.9792 52.5409 18.4896 52.7648 16.8125 53.0356L16.5625 51.9106C17.2135 51.244 17.987 50.158 18.8828 48.6528C17.7995 48.7257 17.0208 48.7804 16.5469 48.8169L16.25 47.7544C17.1667 46.5461 18.1562 44.7023 19.2188 42.2231L20.4062 42.6919C19.3958 44.6711 18.474 46.3273 17.6406 47.6606C18.3229 47.6502 18.9375 47.6346 19.4844 47.6138C19.7969 47.0565 20.125 46.4523 20.4688 45.8013L21.6406 46.3169C20.4531 48.3898 19.3177 50.1763 18.2344 51.6763ZM16.2031 54.9575C17.9323 54.6242 19.7188 54.2492 21.5625 53.8325C21.5208 54.3742 21.5 54.7492 21.5 54.9575C19.6146 55.3742 17.9688 55.77 16.5625 56.145L16.2031 54.9575ZM37.25 47.6294H41.7969V42.2544H43.1406V47.6294H47.7188V48.7544H43.1406V57.5669H41.7969V48.7544H37.25V47.6294ZM38.6875 53.2544C38.7188 53.7961 38.7552 54.2492 38.7969 54.6138C37.1302 55.6554 35.7552 56.5617 34.6719 57.3325L33.9219 56.27C34.2865 55.9575 34.4688 55.4836 34.4688 54.8481V48.6606H32.25V47.5356H35.7188V55.1294C36.625 54.5773 37.6146 53.9523 38.6875 53.2544ZM33.8438 42.4575C34.9792 43.6242 35.8021 44.4888 36.3125 45.0513L35.2188 45.9731C34.5625 45.1086 33.7865 44.2127 32.8906 43.2856L33.8438 42.4575Z" fill="#73768B"/>
</svg>
