<svg width="28" height="29" viewBox="0 0 28 29" fill="none" xmlns="http://www.w3.org/2000/svg">
<path fill-rule="evenodd" clip-rule="evenodd" d="M6.83366 8.67887C6.83366 6.65383 8.47528 5.01221 10.5003 5.01221C12.5254 5.01221 14.167 6.65383 14.167 8.67887C14.167 10.7039 12.5254 12.3455 10.5003 12.3455C8.47528 12.3455 6.83366 10.7039 6.83366 8.67887ZM10.5003 3.01221C7.37071 3.01221 4.83366 5.54926 4.83366 8.67887C4.83366 11.8085 7.37071 14.3455 10.5003 14.3455C13.6299 14.3455 16.167 11.8085 16.167 8.67887C16.167 5.54926 13.6299 3.01221 10.5003 3.01221ZM5.83366 17.0122C4.33076 17.0122 2.88943 17.6092 1.82672 18.6719C0.764014 19.7346 0.166992 21.176 0.166992 22.6789V25.0122C0.166992 25.5645 0.614707 26.0122 1.16699 26.0122C1.71928 26.0122 2.16699 25.5645 2.16699 25.0122V22.6789C2.16699 21.7064 2.5533 20.7738 3.24093 20.0861C3.92857 19.3985 4.8612 19.0122 5.83366 19.0122H15.167C16.1395 19.0122 17.0721 19.3985 17.7597 20.0861C18.4473 20.7738 18.8337 21.7064 18.8337 22.6789V25.0122C18.8337 25.5645 19.2814 26.0122 19.8337 26.0122C20.3859 26.0122 20.8337 25.5645 20.8337 25.0122V22.6789C20.8337 21.176 20.2366 19.7346 19.1739 18.6719C18.1112 17.6092 16.6699 17.0122 15.167 17.0122H5.83366ZM22.3654 17.9139C22.5035 17.3791 23.0489 17.0576 23.5837 17.1956C24.7993 17.5095 25.8764 18.2183 26.6456 19.2106C27.4148 20.2029 27.8327 21.4226 27.8337 22.6781V22.6789V25.0122C27.8337 25.5645 27.3859 26.0122 26.8337 26.0122C26.2814 26.0122 25.8337 25.5645 25.8337 25.0122V22.6796V22.6793C25.833 21.867 25.5626 21.0779 25.0649 20.4359C24.5672 19.7938 23.8703 19.3352 23.0837 19.1321C22.5489 18.9941 22.2273 18.4486 22.3654 17.9139ZM18.915 3.19513C18.38 3.05814 17.8352 3.38081 17.6982 3.91584C17.5613 4.45087 17.8839 4.99564 18.419 5.13263C19.2077 5.33457 19.9067 5.79327 20.406 6.43641C20.9052 7.07956 21.1761 7.87056 21.1761 8.68471C21.1761 9.49887 20.9052 10.2899 20.406 10.933C19.9067 11.5762 19.2077 12.0349 18.419 12.2368C17.8839 12.3738 17.5613 12.9186 17.6982 13.4536C17.8352 13.9886 18.38 14.3113 18.915 14.1743C20.134 13.8622 21.2143 13.1533 21.9859 12.1594C22.7574 11.1654 23.1761 9.94296 23.1761 8.68471C23.1761 7.42647 22.7574 6.20402 21.9859 5.21007C21.2143 4.21612 20.134 3.50722 18.915 3.19513Z" fill="white"/>
</svg>
