<svg width="26" height="24" viewBox="0 0 26 24" fill="none" xmlns="http://www.w3.org/2000/svg">
<path fill-rule="evenodd" clip-rule="evenodd" d="M9.50065 0.0117188C9.93108 0.0117188 10.3132 0.287149 10.4493 0.695491L16.5007 18.8494L19.052 11.1955C19.1881 10.7871 19.5702 10.5117 20.0007 10.5117H24.6673C25.2196 10.5117 25.6673 10.9594 25.6673 11.5117C25.6673 12.064 25.2196 12.5117 24.6673 12.5117H20.7214L17.4493 22.3279C17.3132 22.7363 16.9311 23.0117 16.5007 23.0117C16.0702 23.0117 15.6881 22.7363 15.552 22.3279L9.50065 4.174L6.94933 11.8279C6.81322 12.2363 6.43108 12.5117 6.00065 12.5117H1.33398C0.7817 12.5117 0.333984 12.064 0.333984 11.5117C0.333984 10.9594 0.7817 10.5117 1.33398 10.5117H5.27989L8.55197 0.695491C8.68808 0.287149 9.07022 0.0117188 9.50065 0.0117188Z" fill="white"/>
</svg>
