<svg width="64" height="65" viewBox="0 0 64 65" fill="none" xmlns="http://www.w3.org/2000/svg">
<g clip-path="url(#clip0_46_1427)">
<path d="M32 25.0122C33.933 25.0122 35.5 23.4452 35.5 21.5122C35.5 19.5792 33.933 18.0122 32 18.0122C30.067 18.0122 28.5 19.5792 28.5 21.5122C28.5 23.4452 30.067 25.0122 32 25.0122Z" stroke="#73768B" stroke-width="2" stroke-linecap="round" stroke-linejoin="round"/>
<path d="M40.6337 25.012C40.4784 25.3639 40.432 25.7543 40.5007 26.1327C40.5693 26.5112 40.7497 26.8604 41.0187 27.1354L41.0887 27.2054C41.3056 27.4221 41.4777 27.6794 41.5951 27.9627C41.7126 28.2459 41.773 28.5496 41.773 28.8562C41.773 29.1628 41.7126 29.4665 41.5951 29.7497C41.4777 30.033 41.3056 30.2903 41.0887 30.507C40.872 30.724 40.6146 30.8961 40.3314 31.0135C40.0481 31.1309 39.7445 31.1914 39.4378 31.1914C39.1312 31.1914 38.8276 31.1309 38.5443 31.0135C38.261 30.8961 38.0037 30.724 37.787 30.507L37.717 30.437C37.442 30.1681 37.0928 29.9877 36.7143 29.919C36.3359 29.8504 35.9455 29.8967 35.5937 30.052C35.2486 30.1999 34.9543 30.4455 34.747 30.7585C34.5397 31.0715 34.4285 31.4383 34.427 31.8137V32.012C34.427 32.6309 34.1812 33.2244 33.7436 33.662C33.306 34.0995 32.7125 34.3454 32.0937 34.3454C31.4748 34.3454 30.8813 34.0995 30.4437 33.662C30.0062 33.2244 29.7603 32.6309 29.7603 32.012V31.907C29.7513 31.5209 29.6263 31.1464 29.4016 30.8322C29.1769 30.518 28.8629 30.2787 28.5003 30.1454C28.1484 29.9901 27.7581 29.9438 27.3796 30.0124C27.0012 30.081 26.652 30.2614 26.377 30.5304L26.307 30.6004C26.0903 30.8173 25.8329 30.9894 25.5497 31.1069C25.2664 31.2243 24.9628 31.2847 24.6562 31.2847C24.3495 31.2847 24.0459 31.2243 23.7626 31.1069C23.4794 30.9894 23.222 30.8173 23.0053 30.6004C22.7884 30.3837 22.6163 30.1263 22.4989 29.8431C22.3814 29.5598 22.321 29.2562 22.321 28.9495C22.321 28.6429 22.3814 28.3393 22.4989 28.056C22.6163 27.7728 22.7884 27.5154 23.0053 27.2987L23.0753 27.2287C23.3443 26.9538 23.5247 26.6045 23.5933 26.2261C23.662 25.8476 23.6156 25.4573 23.4603 25.1054C23.3124 24.7603 23.0669 24.466 22.7539 24.2587C22.4409 24.0514 22.0741 23.9402 21.6987 23.9387H21.5003C20.8815 23.9387 20.288 23.6929 19.8504 23.2553C19.4128 22.8177 19.167 22.2242 19.167 21.6054C19.167 20.9865 19.4128 20.393 19.8504 19.9555C20.288 19.5179 20.8815 19.272 21.5003 19.272H21.6053C21.9915 19.263 22.366 19.138 22.6802 18.9133C22.9944 18.6886 23.2337 18.3746 23.367 18.012C23.5223 17.6602 23.5686 17.2698 23.5 16.8914C23.4314 16.5129 23.251 16.1637 22.982 15.8887L22.912 15.8187C22.695 15.602 22.5229 15.3447 22.4055 15.0614C22.2881 14.7781 22.2277 14.4745 22.2277 14.1679C22.2277 13.8612 22.2881 13.5576 22.4055 13.2744C22.5229 12.9911 22.695 12.7337 22.912 12.517C23.1287 12.3001 23.386 12.128 23.6693 12.0106C23.9526 11.8931 24.2562 11.8327 24.5628 11.8327C24.8695 11.8327 25.1731 11.8931 25.4564 12.0106C25.7396 12.128 25.997 12.3001 26.2137 12.517L26.2837 12.587C26.5586 12.856 26.9078 13.0364 27.2863 13.105C27.6648 13.1737 28.0551 13.1273 28.407 12.972H28.5003C28.8454 12.8242 29.1397 12.5786 29.347 12.2656C29.5543 11.9526 29.6655 11.5858 29.667 11.2104V11.012C29.667 10.3932 29.9128 9.79971 30.3504 9.36213C30.788 8.92454 31.3815 8.67871 32.0003 8.67871C32.6192 8.67871 33.2127 8.92454 33.6502 9.36213C34.0878 9.79971 34.3337 10.3932 34.3337 11.012V11.117C34.3352 11.4925 34.4464 11.8592 34.6537 12.1723C34.861 12.4853 35.1553 12.7308 35.5003 12.8787C35.8522 13.034 36.2426 13.0803 36.621 13.0117C36.9995 12.9431 37.3487 12.7627 37.6237 12.4937L37.6937 12.4237C37.9104 12.2068 38.1677 12.0347 38.451 11.9172C38.7342 11.7998 39.0379 11.7394 39.3445 11.7394C39.6511 11.7394 39.9548 11.7998 40.238 11.9172C40.5213 12.0347 40.7786 12.2068 40.9953 12.4237C41.2123 12.6404 41.3844 12.8978 41.5018 13.181C41.6192 13.4643 41.6797 13.7679 41.6797 14.0745C41.6797 14.3812 41.6192 14.6848 41.5018 14.9681C41.3844 15.2513 41.2123 15.5087 40.9953 15.7254L40.9253 15.7954C40.6564 16.0703 40.4759 16.4196 40.4073 16.798C40.3387 17.1765 40.385 17.5668 40.5403 17.9187V18.012C40.6882 18.3571 40.9338 18.6514 41.2468 18.8587C41.5598 19.066 41.9266 19.1772 42.302 19.1787H42.5003C43.1192 19.1787 43.7127 19.4245 44.1502 19.8621C44.5878 20.2997 44.8337 20.8932 44.8337 21.512C44.8337 22.1309 44.5878 22.7244 44.1502 23.162C43.7127 23.5995 43.1192 23.8454 42.5003 23.8454H42.3953C42.0199 23.8469 41.6531 23.9581 41.3401 24.1654C41.0271 24.3727 40.7815 24.667 40.6337 25.012V25.012Z" stroke="#73768B" stroke-width="2" stroke-linecap="round" stroke-linejoin="round"/>
</g>
<path d="M20.448 44.7842C20.1067 44.3895 19.664 43.9309 19.12 43.4082C18.5867 42.8749 18.128 42.4482 17.744 42.1282L18.576 41.2482C18.9067 41.4935 19.3387 41.8669 19.872 42.3682C20.4053 42.8695 20.9013 43.3549 21.36 43.8242L20.448 44.7842ZM24.8 43.9202C24.8 44.5175 24.6187 45.0775 24.256 45.6002C23.8933 46.1229 23.248 46.6775 22.32 47.2642L21.424 46.2722C22.0213 45.9095 22.4693 45.5895 22.768 45.3122C23.0773 45.0349 23.2853 44.7469 23.392 44.4482C23.4987 44.1495 23.552 43.7762 23.552 43.3282V41.7602H28.992V44.8642C28.992 45.0989 29.04 45.2589 29.136 45.3442C29.232 45.4295 29.376 45.4722 29.568 45.4722H31.184L31.008 46.6722H29.424C28.8267 46.6722 28.3893 46.5762 28.112 46.3842C27.8453 46.1922 27.712 45.8295 27.712 45.2962V42.8962H24.8V43.9202ZM22.512 52.4962L19.936 54.6082C19.7653 54.7362 19.504 54.9709 19.152 55.3122L18.368 54.3202C18.5813 54.1069 18.7147 53.9415 18.768 53.8242C18.832 53.7069 18.864 53.5415 18.864 53.3282V47.3282H16.768V46.1602H20.096V52.8962C20.288 52.7469 20.5813 52.5069 20.976 52.1762C21.3707 51.8455 21.6907 51.5789 21.936 51.3762L22.512 52.4962ZM30.736 55.6482C28.9547 54.9549 27.4933 54.1869 26.352 53.3442C25.1573 54.1869 23.632 54.9655 21.776 55.6802L21.136 54.5442C22.7893 53.9789 24.2027 53.3122 25.376 52.5442C24.2987 51.5522 23.4667 50.3362 22.88 48.8962H22.016V47.7282H29.968V48.9122C29.392 50.3415 28.5067 51.5682 27.312 52.5922C28.3253 53.2749 29.6693 53.8882 31.344 54.4322L30.736 55.6482ZM24.176 48.8962C24.7307 50.0909 25.4507 51.0722 26.336 51.8402C27.4133 50.9549 28.1707 49.9735 28.608 48.8962H24.176ZM44.896 47.4562V54.2402H47.248V55.2482H32.768V54.2402H35.104V47.4562H39.2L39.28 46.5922H33.328V45.6802H39.376L39.456 44.7682H33.76V41.8242H46.24V44.7682H40.704L40.624 45.6802H46.672V46.5922H40.528L40.448 47.4562H44.896ZM37.52 42.7042H34.992V43.9202H37.52V42.7042ZM38.64 42.7042V43.9202H41.264V42.7042H38.64ZM42.384 43.9202H45.024V42.7042H42.384V43.9202ZM43.648 49.2482V48.3362H36.352V49.2482H43.648ZM36.352 50.8962H43.648V50.0322H36.352V50.8962ZM43.648 52.6242V51.7122H36.352V52.6242H43.648ZM43.648 53.4402H36.352V54.2402H43.648V53.4402Z" fill="#73768B"/>
<defs>
<clipPath id="clip0_46_1427">
<rect width="28" height="28" fill="white" transform="translate(18 7.51221)"/>
</clipPath>
</defs>
</svg>
