<svg width="26" height="24" viewBox="0 0 26 24" fill="none" xmlns="http://www.w3.org/2000/svg">
<path fill-rule="evenodd" clip-rule="evenodd" d="M2.72402 2.89052C2.97407 2.64048 3.31321 2.5 3.66683 2.5H8.96498L11.0014 5.5547C11.1869 5.8329 11.4991 6 11.8335 6H22.3335C22.6871 6 23.0263 6.14048 23.2763 6.39052C23.5264 6.64057 23.6668 6.97971 23.6668 7.33333V20.1667C23.6668 20.5203 23.5264 20.8594 23.2763 21.1095C23.0263 21.3595 22.6871 21.5 22.3335 21.5H3.66683C3.31321 21.5 2.97407 21.3595 2.72402 21.1095C2.47397 20.8594 2.3335 20.5203 2.3335 20.1667V3.83333C2.3335 3.47971 2.47397 3.14057 2.72402 2.89052ZM3.66683 0.5C2.78277 0.5 1.93493 0.851189 1.30981 1.47631C0.684685 2.10143 0.333496 2.94928 0.333496 3.83333V20.1667C0.333496 21.0507 0.684686 21.8986 1.30981 22.5237C1.93493 23.1488 2.78277 23.5 3.66683 23.5H22.3335C23.2176 23.5 24.0654 23.1488 24.6905 22.5237C25.3156 21.8986 25.6668 21.0507 25.6668 20.1667V7.33333C25.6668 6.44928 25.3156 5.60143 24.6905 4.97631C24.0654 4.35119 23.2176 4 22.3335 4H12.3687L10.3322 0.9453C10.1467 0.667101 9.83452 0.5 9.50016 0.5H3.66683ZM9.50016 13.3333C8.94788 13.3333 8.50016 13.781 8.50016 14.3333C8.50016 14.8856 8.94788 15.3333 9.50016 15.3333H16.5002C17.0524 15.3333 17.5002 14.8856 17.5002 14.3333C17.5002 13.781 17.0524 13.3333 16.5002 13.3333H9.50016Z" fill="white"/>
</svg>
