<svg width="22" height="22" viewBox="0 0 22 22" fill="none" xmlns="http://www.w3.org/2000/svg">
<path fill-rule="evenodd" clip-rule="evenodd" d="M11 2C6.02944 2 2 6.02944 2 11C2 15.9706 6.02944 20 11 20C15.9706 20 20 15.9706 20 11C20 6.02944 15.9706 2 11 2ZM0 11C0 4.92487 4.92487 0 11 0C17.0751 0 22 4.92487 22 11C22 17.0751 17.0751 22 11 22C4.92487 22 0 17.0751 0 11ZM9 7C9.55229 7 10 7.44772 10 8V14C10 14.5523 9.55229 15 9 15C8.44771 15 8 14.5523 8 14V8C8 7.44772 8.44771 7 9 7ZM14 8C14 7.44772 13.5523 7 13 7C12.4477 7 12 7.44772 12 8V14C12 14.5523 12.4477 15 13 15C13.5523 15 14 14.5523 14 14V8Z" fill="#1B1B1F"/>
</svg>
