<svg width="24" height="24" viewBox="0 0 24 24" fill="none" xmlns="http://www.w3.org/2000/svg">
<g clip-path="url(#clip0_48_1359)">
<path fill-rule="evenodd" clip-rule="evenodd" d="M13.771 19.8003C12.453 20.0986 11.0808 20.058 9.78267 19.6825C8.4845 19.307 7.30261 18.6088 6.34728 17.653C6.33989 17.6456 6.33239 17.6383 6.32477 17.6312L3.52463 15L7 15C7.55228 15 8 14.5523 8 14C8 13.4477 7.55228 13 7 13L1.01275 13C0.899049 12.9986 0.785258 13.0164 0.676702 13.0534C0.526939 13.1044 0.387136 13.1918 0.271243 13.3151C0.17146 13.4213 0.099374 13.5436 0.0547097 13.6729C0.0253117 13.7581 0.00779271 13.8463 0.00207258 13.9351C0.000680221 13.9567 -1.21452e-05 13.9783 -6.42122e-06 14C-6.42115e-06 14.0007 -4.51374e-06 14.0014 -4.51368e-06 14.0021L-3.98933e-06 20C-3.94105e-06 20.5523 0.447712 21 0.999996 21C1.55228 21 2 20.5523 2 20L2 16.3118L4.9441 19.0782C6.13626 20.2672 7.6094 21.1359 9.22695 21.6038C10.8497 22.0731 12.5648 22.1238 14.2124 21.751C15.86 21.3782 17.3863 20.5942 18.6489 19.4719C19.9115 18.3497 20.8692 16.926 21.4327 15.3335C21.617 14.8129 21.3442 14.2414 20.8236 14.0572C20.3029 13.873 19.7315 14.1457 19.5473 14.6663C19.0965 15.9403 18.3303 17.0793 17.3202 17.9771C16.3101 18.8748 15.0891 19.5021 13.771 19.8003ZM23.82 10.5725C23.7738 10.6386 23.7198 10.6988 23.6593 10.7519C23.5984 10.8054 23.5325 10.8503 23.463 10.8866C23.3246 10.959 23.1671 11 23 11L17 11C16.4477 11 16 10.5523 16 10C16 9.44772 16.4477 9 17 9L20.4755 9L17.6752 6.36868C17.6676 6.36152 17.6601 6.35425 17.6527 6.34685C16.6974 5.39105 15.5155 4.69281 14.2173 4.31732C12.9192 3.94182 11.547 3.9013 10.229 4.19953C8.9109 4.49776 7.68987 5.12502 6.67979 6.02278C5.66972 6.92055 4.90353 8.05955 4.45271 9.33352C4.26847 9.85417 3.69705 10.1269 3.1764 9.94264C2.65575 9.7584 2.38304 9.18698 2.56728 8.66633C3.1308 7.07387 4.08854 5.65011 5.35113 4.52791C6.61372 3.4057 8.14002 2.62162 9.7876 2.24884C11.4352 1.87605 13.1503 1.92671 14.773 2.39608C16.3906 2.86396 17.8637 3.73269 19.0559 4.92162L22 7.68806L22 4C22 3.44772 22.4477 3 23 3C23.5523 3 24 3.44772 24 4L24 9.99765L24 10C24 10.0108 23.9998 10.0215 23.9995 10.0322C23.9999 10.0207 24 10.0091 24 9.99765M23.82 10.5725C23.8532 10.525 23.8824 10.4746 23.9071 10.4216C23.8828 10.4737 23.8538 10.5242 23.82 10.5725Z" fill="#3452CE"/>
</g>
<defs>
<clipPath id="clip0_48_1359">
<rect width="24" height="24" fill="white"/>
</clipPath>
</defs>
</svg>
